<svg width="19" height="19" viewBox="0 0 19 19" fill="none" xmlns="http://www.w3.org/2000/svg">
<path d="M4.9446 1.64205V3.62358M14.1918 1.64205V3.62358M1.64204 15.5128V5.60511C1.64204 5.07958 1.85081 4.57557 2.22242 4.20396C2.59403 3.83235 3.09804 3.62358 3.62358 3.62358H15.5128C16.0383 3.62358 16.5423 3.83235 16.9139 4.20396C17.2855 4.57557 17.4943 5.07958 17.4943 5.60511V15.5128M1.64204 15.5128C1.64204 16.0383 1.85081 16.5423 2.22242 16.9139C2.59403 17.2856 3.09804 17.4943 3.62358 17.4943H15.5128C16.0383 17.4943 16.5423 17.2856 16.9139 16.9139C17.2855 16.5423 17.4943 16.0383 17.4943 15.5128M1.64204 15.5128V8.90767C1.64204 8.38214 1.85081 7.87812 2.22242 7.50651C2.59403 7.13491 3.09804 6.92614 3.62358 6.92614H15.5128C16.0383 6.92614 16.5423 7.13491 16.9139 7.50651C17.2855 7.87812 17.4943 8.38214 17.4943 8.90767V15.5128M9.56818 10.2287H9.57523V10.2357H9.56818V10.2287ZM9.56818 12.2102H9.57523V12.2173H9.56818V12.2102ZM9.56818 14.1918H9.57523V14.1988H9.56818V14.1918ZM7.58665 12.2102H7.59369V12.2173H7.58665V12.2102ZM7.58665 14.1918H7.59369V14.1988H7.58665V14.1918ZM5.60511 12.2102H5.61216V12.2173H5.60511V12.2102ZM5.60511 14.1918H5.61216V14.1988H5.60511V14.1918ZM11.5497 10.2287H11.5568V10.2357H11.5497V10.2287ZM11.5497 12.2102H11.5568V12.2173H11.5497V12.2102ZM11.5497 14.1918H11.5568V14.1988H11.5497V14.1918ZM13.5312 10.2287H13.5383V10.2357H13.5312V10.2287ZM13.5312 12.2102H13.5383V12.2173H13.5312V12.2102Z" stroke="#15274B" stroke-width="1.32102" stroke-linecap="round" stroke-linejoin="round"/>
</svg>
