<svg width="19" height="19" viewBox="0 0 19 19" fill="none" xmlns="http://www.w3.org/2000/svg">
<path d="M9.5 0.125C4.33158 0.125 0.125 4.33158 0.125 9.5C0.125 14.6684 4.33158 18.875 9.5 18.875C14.6684 18.875 18.875 14.6684 18.875 9.5C18.875 4.33158 14.6684 0.125 9.5 0.125ZM9.5 1.6875C13.824 1.6875 17.3125 5.17602 17.3125 9.5C17.3125 13.4276 14.431 16.6572 10.6627 17.2179V11.7781H12.8875L13.2369 9.51831H10.6627V8.28387C10.6627 7.34559 10.971 6.51233 11.8483 6.51233H13.2582V4.54089C13.0106 4.5073 12.4865 4.43408 11.4958 4.43408C9.4271 4.43408 8.21521 5.52626 8.21521 8.01532V9.51831H6.08813V11.7781H8.21521V17.1981C4.50692 16.5864 1.6875 13.3852 1.6875 9.5C1.6875 5.17602 5.17602 1.6875 9.5 1.6875Z" fill="#7A7A7A"/>
</svg>
