<svg width="25" height="25" viewBox="0 0 25 25" fill="none" xmlns="http://www.w3.org/2000/svg">
<path d="M8.95996 3.90625C6.18591 3.90625 3.90625 6.18286 3.90625 8.95996V16.04C3.90625 18.8141 6.18286 21.0938 8.95996 21.0938H16.04C18.8141 21.0938 21.0938 18.8171 21.0938 16.04V8.95996C21.0938 6.18591 18.8171 3.90625 16.04 3.90625H8.95996ZM8.95996 5.46875H16.04C17.9718 5.46875 19.5312 7.0282 19.5312 8.95996V16.04C19.5312 17.9718 17.9718 19.5312 16.04 19.5312H8.95996C7.0282 19.5312 5.46875 17.9718 5.46875 16.04V8.95996C5.46875 7.0282 7.0282 5.46875 8.95996 5.46875ZM17.1143 7.17773C16.7206 7.17773 16.4062 7.49207 16.4062 7.88574C16.4062 8.27942 16.7206 8.59375 17.1143 8.59375C17.5079 8.59375 17.8223 8.27942 17.8223 7.88574C17.8223 7.49207 17.5079 7.17773 17.1143 7.17773ZM12.5 7.8125C9.92126 7.8125 7.8125 9.92126 7.8125 12.5C7.8125 15.0787 9.92126 17.1875 12.5 17.1875C15.0787 17.1875 17.1875 15.0787 17.1875 12.5C17.1875 9.92126 15.0787 7.8125 12.5 7.8125ZM12.5 9.375C14.2365 9.375 15.625 10.7635 15.625 12.5C15.625 14.2365 14.2365 15.625 12.5 15.625C10.7635 15.625 9.375 14.2365 9.375 12.5C9.375 10.7635 10.7635 9.375 12.5 9.375Z" fill="#7A7A7A"/>
</svg>
