<svg width="46" height="45" viewBox="0 0 46 45" fill="none" xmlns="http://www.w3.org/2000/svg">
<path d="M23 25.3125C29.2132 25.3125 34.25 20.2757 34.25 14.0625C34.25 7.8493 29.2132 2.8125 23 2.8125C16.7868 2.8125 11.75 7.8493 11.75 14.0625C11.75 20.2757 16.7868 25.3125 23 25.3125Z" stroke="#15274B" stroke-width="2" stroke-linecap="round" stroke-linejoin="round"/>
<path d="M13.1255 20.0232L4.71875 35.1562L12.3529 35.1193C12.5975 35.118 12.8382 35.1806 13.0512 35.3009C13.2643 35.4211 13.4422 35.5948 13.5676 35.8048L17.375 42.1875L25.1384 25.1085" stroke="#15274B" stroke-width="2" stroke-linecap="round" stroke-linejoin="round"/>
<path d="M32.7154 19.6875L41.2812 35.1562L33.6471 35.1193C33.4025 35.1181 33.1618 35.1807 32.9488 35.3009C32.7358 35.4211 32.5578 35.5948 32.4324 35.8049L28.625 42.1875L23 29.8125" stroke="#15274B" stroke-width="2" stroke-linecap="round" stroke-linejoin="round"/>
<path d="M23 19.6875C26.1066 19.6875 28.625 17.1691 28.625 14.0625C28.625 10.9559 26.1066 8.4375 23 8.4375C19.8934 8.4375 17.375 10.9559 17.375 14.0625C17.375 17.1691 19.8934 19.6875 23 19.6875Z" stroke="#15274B" stroke-width="2" stroke-linecap="round" stroke-linejoin="round"/>
</svg>
