<svg xmlns="http://www.w3.org/2000/svg" viewBox="0 0 57.5 40"><defs><style>.cls-1{fill:none;}.cls-2{fill:#fff;stroke:#d9d9d9;}.cls-3{fill:#484848;}.cls-3,.cls-4,.cls-5{fill-rule:evenodd;}.cls-4{fill:#a9a9a9;}.cls-5{fill:#848484;}</style></defs><title>Asset 1</title><g id="Layer_2" data-name="Layer 2"><g id="Layer_1-2" data-name="Layer 1"><rect class="cls-1" width="57.5" height="40"/><path class="cls-2" d="M47.11,2.5H10.39a8,8,0,0,0-7.89,8V30.65a8,8,0,0,0,7.89,8H47.11a8,8,0,0,0,7.89-8V10.53A8,8,0,0,0,47.11,2.5Z"/><path class="cls-3" d="M28.48,29a11,11,0,0,1-7.27,2.75A11.36,11.36,0,0,1,10,20.25,11.36,11.36,0,0,1,21.21,8.75a11,11,0,0,1,7.27,2.75,11,11,0,0,1,7.27-2.75A11.36,11.36,0,0,1,47,20.25,11.36,11.36,0,0,1,35.75,31.76,11,11,0,0,1,28.48,29Z"/><path class="cls-4" d="M28.48,29a11.7,11.7,0,0,0,0-17.51,11,11,0,0,1,7.27-2.75A11.36,11.36,0,0,1,47,20.25,11.36,11.36,0,0,1,35.75,31.76,11,11,0,0,1,28.48,29Z"/><path class="cls-5" d="M28.48,29a11.7,11.7,0,0,0,0-17.51,11.7,11.7,0,0,0,0,17.51Z"/></g></g></svg>