<svg width="39" height="37" viewBox="0 0 39 37" fill="none" xmlns="http://www.w3.org/2000/svg">
<path d="M35.4672 14.6468C35.1915 14.6933 34.9455 14.8473 34.7833 15.0751C34.6212 15.3029 34.5561 15.5857 34.6024 15.8615C34.7473 16.7335 34.8202 17.616 34.8203 18.4999C34.8233 22.5292 33.2828 26.4065 30.5154 29.3351C28.8583 26.7584 26.3813 24.8152 23.4842 23.8191C24.9288 22.8569 26.0255 21.4554 26.612 19.8217C27.1986 18.1881 27.2439 16.4091 26.7412 14.7477C26.2386 13.0864 25.2147 11.6309 23.8209 10.5964C22.4272 9.56188 20.7375 9.00334 19.0018 9.00334C17.266 9.00334 15.5764 9.56188 14.1826 10.5964C12.7888 11.6309 11.7649 13.0864 11.2623 14.7477C10.7597 16.4091 10.805 18.1881 11.3915 19.8217C11.9781 21.4554 13.0747 22.8569 14.5193 23.8191C11.6222 24.8152 9.14524 26.7584 7.4881 29.3351C5.37047 27.088 3.95713 24.27 3.42249 21.2289C2.88785 18.1879 3.25532 15.0568 4.47954 12.2222C5.70376 9.38752 7.73116 6.97335 10.3115 5.27759C12.8919 3.58183 15.9123 2.67869 19 2.67963C19.8834 2.67981 20.7653 2.75271 21.6367 2.8976C21.7745 2.92357 21.916 2.92181 22.0531 2.89244C22.1902 2.86307 22.32 2.80667 22.435 2.72654C22.55 2.64641 22.6479 2.54416 22.7229 2.42576C22.798 2.30736 22.8487 2.17519 22.872 2.03698C22.8954 1.89877 22.891 1.75728 22.859 1.62079C22.8271 1.48431 22.7682 1.35556 22.686 1.24207C22.6037 1.12859 22.4996 1.03264 22.3798 0.959849C22.26 0.887054 22.1269 0.838868 21.9883 0.818109C18.2437 0.188719 14.396 0.765589 11.0006 2.46544C7.60521 4.16529 4.83786 6.90016 3.09805 10.2752C1.35823 13.6503 0.735984 17.491 1.32113 21.2427C1.90627 24.9945 3.66853 28.4632 6.3535 31.1482C9.03847 33.8332 12.5072 35.5954 16.259 36.1806C20.0107 36.7657 23.8514 36.1435 27.2265 34.4037C30.6015 32.6639 33.3364 29.8965 35.0363 26.5011C36.7361 23.1057 37.313 19.258 36.6836 15.5134C36.6608 15.3766 36.6112 15.2456 36.5377 15.1279C36.4642 15.0102 36.3682 14.9082 36.2552 14.8277C36.1422 14.7472 36.0145 14.6898 35.8792 14.6588C35.744 14.6277 35.604 14.6237 35.4672 14.6468ZM13.0234 17.0937C13.0234 15.9116 13.374 14.7561 14.0307 13.7733C14.6874 12.7905 15.6208 12.0244 16.7129 11.5721C17.805 11.1197 19.0066 11.0014 20.166 11.232C21.3253 11.4626 22.3902 12.0318 23.2261 12.8676C24.0619 13.7035 24.6311 14.7684 24.8617 15.9277C25.0923 17.0871 24.974 18.2888 24.5216 19.3808C24.0693 20.4729 23.3033 21.4063 22.3204 22.063C21.3376 22.7197 20.1821 23.0703 19 23.0703C17.4149 23.0703 15.8948 22.4406 14.7739 21.3198C13.6531 20.1989 13.0234 18.6788 13.0234 17.0937ZM9.05783 30.8046C10.0893 29.0895 11.5469 27.6703 13.2891 26.6851C15.0312 25.6999 16.9986 25.1821 19 25.1821C21.0014 25.1821 22.9688 25.6999 24.711 26.6851C26.4531 27.6703 27.9107 29.0895 28.9422 30.8046C26.1303 33.0848 22.6202 34.3291 19 34.3291C15.3798 34.3291 11.8697 33.0848 9.05783 30.8046ZM38.0266 3.77651L32.4016 9.40151C32.2038 9.59902 31.9358 9.70995 31.6563 9.70995C31.3768 9.70995 31.1087 9.59902 30.9109 9.40151L28.0984 6.58901C27.9121 6.38907 27.8107 6.12463 27.8155 5.8514C27.8204 5.57816 27.9311 5.31746 28.1243 5.12423C28.3175 4.93099 28.5782 4.8203 28.8515 4.81548C29.1247 4.81066 29.3891 4.91208 29.5891 5.09838L31.6563 7.16381L36.5359 2.28588C36.7359 2.09958 37.0003 1.99816 37.2736 2.00298C37.5468 2.0078 37.8075 2.11849 38.0007 2.31173C38.194 2.50496 38.3047 2.76566 38.3095 3.0389C38.3143 3.31213 38.2129 3.57657 38.0266 3.77651Z" fill="#15274B" stroke="#15274B" stroke-width="0.5"/>
</svg>
