<svg width="20" height="20" viewBox="0 0 20 20" fill="none" xmlns="http://www.w3.org/2000/svg">
<path d="M8.40844 1.24791C6.99217 1.24791 5.60772 1.66788 4.43014 2.45471C3.25256 3.24155 2.33474 4.35991 1.79276 5.66836C1.25078 6.97682 1.10898 8.41661 1.38528 9.80566C1.66158 11.1947 2.34357 12.4706 3.34502 13.4721C4.34647 14.4735 5.62239 15.1555 7.01144 15.4318C8.40049 15.7081 9.84028 15.5663 11.1487 15.0243C12.4572 14.4824 13.5756 13.5645 14.3624 12.387C15.1492 11.2094 15.5692 9.82493 15.5692 8.40866C15.5691 6.50955 14.8146 4.68826 13.4717 3.34538C12.1288 2.0025 10.3076 1.24803 8.40844 1.24791Z" stroke="#434343" stroke-width="1.5" stroke-miterlimit="10"/>
<path d="M13.749 13.751L18.75 18.752" stroke="#434343" stroke-width="1.5" stroke-miterlimit="10" stroke-linecap="round"/>
</svg>
