<svg width="13" height="14" viewBox="0 0 13 14" fill="none" xmlns="http://www.w3.org/2000/svg">
<path d="M3.71304 4.90468V3.96656C3.71304 3.22013 3.99648 2.50429 4.50099 1.97649C5.0055 1.44869 5.68977 1.15217 6.40326 1.15217C7.11675 1.15217 7.80102 1.44869 8.30553 1.97649C8.81005 2.50429 9.09348 3.22013 9.09348 3.96656V4.90468M1.4712 4.90468C1.35228 4.90468 1.23824 4.9541 1.15415 5.04207C1.07007 5.13003 1.02283 5.24934 1.02283 5.37375V11.7061C1.02283 12.5926 1.7447 13.3478 2.59212 13.3478H10.2144C11.0618 13.3478 11.7837 12.6293 11.7837 11.7427V5.37375C11.7837 5.24934 11.7365 5.13003 11.6524 5.04207C11.5683 4.9541 11.4542 4.90468 11.3353 4.90468H1.4712Z" stroke="#15274B" stroke-width="1.07609" stroke-linecap="round" stroke-linejoin="round"/>
</svg>
