<svg width="15" height="15" viewBox="0 0 15 15" fill="none" xmlns="http://www.w3.org/2000/svg">
<path d="M11.8998 12.4332C11.3985 11.7695 10.75 11.2313 10.0053 10.8609C9.26061 10.4905 8.44008 10.2982 7.60837 10.2989C6.77666 10.2982 5.95614 10.4905 5.21144 10.8609C4.46674 11.2313 3.81821 11.7695 3.31694 12.4332M11.8998 12.4332C12.878 11.5631 13.5678 10.4163 13.8792 9.1447C14.1906 7.87315 14.1081 6.53698 13.6427 5.31339C13.1772 4.08981 12.3508 3.03661 11.2731 2.29348C10.1953 1.55035 8.91714 1.15239 7.60801 1.15239C6.29889 1.15239 5.02069 1.55035 3.94293 2.29348C2.86518 3.03661 2.03878 4.08981 1.57334 5.31339C1.1079 6.53698 1.02541 7.87315 1.33681 9.1447C1.6482 10.4163 2.33877 11.5631 3.31694 12.4332M11.8998 12.4332C10.719 13.4864 9.19067 14.0675 7.60837 14.0652C6.02583 14.0677 4.49793 13.4866 3.31694 12.4332M9.76054 5.99457C9.76054 6.56537 9.5338 7.11278 9.13019 7.51639C8.72658 7.92 8.17916 8.14675 7.60837 8.14675C7.03758 8.14675 6.49017 7.92 6.08655 7.51639C5.68294 7.11278 5.4562 6.56537 5.4562 5.99457C5.4562 5.42378 5.68294 4.87637 6.08655 4.47276C6.49017 4.06915 7.03758 3.8424 7.60837 3.8424C8.17916 3.8424 8.72658 4.06915 9.13019 4.47276C9.5338 4.87637 9.76054 5.42378 9.76054 5.99457Z" stroke="#15274B" stroke-width="1.07609" stroke-linecap="round" stroke-linejoin="round"/>
</svg>
