<svg xmlns="http://www.w3.org/2000/svg" viewBox="0 0 57.5 38.78"><defs><style>.cls-1{fill:none;}.cls-2{fill:#fff;stroke:#ebe7e4;}.cls-3{fill:#2f2f2f;fill-rule:evenodd;}</style></defs><title>Asset 1</title><g id="Layer_2" data-name="Layer 2"><g id="Layer_1-2" data-name="Layer 1"><rect class="cls-1" width="57.5" height="38.78"/><path class="cls-2" d="M47.11,1.25H10.39A7.89,7.89,0,0,0,2.5,9.14V28.89a7.89,7.89,0,0,0,7.89,7.89H47.11A7.89,7.89,0,0,0,55,28.89V9.14A7.89,7.89,0,0,0,47.11,1.25Z"/><path class="cls-3" d="M18.81,25H15.33l-2.61-9.81a1.59,1.59,0,0,0-.78-1,11.49,11.49,0,0,0-3.19-1v-.38h5.61A1.45,1.45,0,0,1,15.81,14l1.36,7.07,3.48-8.3H24ZM26,25H22.68l2.71-12.26h3.29Zm7-8.86a1.27,1.27,0,0,1,1.35-1,6.19,6.19,0,0,1,3.2.57l.58-2.64a8.43,8.43,0,0,0-3-.57c-3.19,0-5.52,1.7-5.52,4.05,0,1.8,1.65,2.74,2.81,3.3s1.74.95,1.64,1.51c0,.85-1,1.23-1.93,1.23a8.5,8.5,0,0,1-3.39-.76l-.58,2.64a9.64,9.64,0,0,0,3.58.66c3.58.09,5.81-1.6,5.81-4.15C37.49,17.78,32.94,17.59,32.94,16.18ZM49,25,46.39,12.78H43.58a1.44,1.44,0,0,0-1.35,1L37.39,25h3.39l.67-1.79h4.16L46,25Zm-4.93-9,1,4.62H42.32Z"/></g></g></svg>